<?xml version="1.0" encoding="UTF-8" standalone="no"?>
<svg
   xmlns:dc="http://purl.org/dc/elements/1.1/"
   xmlns:cc="http://creativecommons.org/ns#"
   xmlns:rdf="http://www.w3.org/1999/02/22-rdf-syntax-ns#"
   xmlns:svg="http://www.w3.org/2000/svg"
   xmlns="http://www.w3.org/2000/svg"
   xmlns:sodipodi="http://sodipodi.sourceforge.net/DTD/sodipodi-0.dtd"
   xmlns:inkscape="http://www.inkscape.org/namespaces/inkscape"
   inkscape:version="1.0 (4035a4fb49, 2020-05-01)"
   sodipodi:docname="sun-icon.svg"
   id="svg4"
   version="1.1"
   viewBox="0 0 24 20"
   height="20"
   width="24">
  <metadata
     id="metadata10">
    <rdf:RDF>
      <cc:Work
         rdf:about="">
        <dc:format>image/svg+xml</dc:format>
        <dc:type
           rdf:resource="http://purl.org/dc/dcmitype/StillImage" />
        <dc:title />
      </cc:Work>
    </rdf:RDF>
  </metadata>
  <defs
     id="defs8" />
  <sodipodi:namedview
     inkscape:current-layer="svg4"
     inkscape:window-maximized="1"
     inkscape:window-y="-8"
     inkscape:window-x="-8"
     inkscape:cy="14.873943"
     inkscape:cx="11.447338"
     inkscape:zoom="11.521903"
     showgrid="false"
     id="namedview6"
     inkscape:window-height="705"
     inkscape:window-width="1366"
     inkscape:pageshadow="2"
     inkscape:pageopacity="0"
     guidetolerance="10"
     gridtolerance="10"
     objecttolerance="10"
     borderopacity="1"
     bordercolor="#666666"
     pagecolor="#ffffff"
     inkscape:document-rotation="0" />
  <path
     style="stroke-width:0.666667;fill:#767678;fill-opacity:1"
     id="path2"
     d="M 6.7126667,12.666667 H 4 V 11.333333 H 6.7126667 C 6.6853333,11.552 6.6666667,11.774 6.6666667,12 c 0,0.226 0.018667,0.448 0.046,0.666667 z M 8.7353333,7.792 6.8146667,5.8713333 5.872,6.814 7.7926667,8.7346667 C 8.0666667,8.382 8.3826667,8.066 8.7353333,7.792 Z M 16.208,8.7346667 18.128667,6.814 17.186,5.8713333 15.265333,7.792 c 0.352,0.274 0.668,0.5906667 0.942667,0.9426667 z M 12,6.6666667 c 0.226,0 0.448,0.018667 0.666667,0.046 V 4 H 11.333333 V 6.7126667 C 11.552,6.6853333 11.774,6.6666667 12,6.6666667 Z m 0,10.6666663 c -0.226,0 -0.448,-0.01867 -0.666667,-0.046 V 20 h 1.333334 V 17.287333 C 12.448,17.314667 12.226,17.333333 12,17.333333 Z m 5.287333,-6 c 0.02733,0.218667 0.046,0.440667 0.046,0.666667 0,0.226 -0.01867,0.448 -0.046,0.666667 H 20 v -1.333334 z m -2.022,4.874667 1.92,1.92 0.943334,-0.942667 -1.92,-1.92 C 15.934,15.617333 15.618,15.933333 15.265333,16.208 Z M 7.792,15.264667 l -1.92,1.92 0.9426667,0.942666 1.92,-1.92 C 8.3826667,15.933333 8.066,15.617333 7.792,15.264667 Z M 9.3333333,12 c 0,1.470667 1.1959997,2.666667 2.6666667,2.666667 1.470667,0 2.666667,-1.196 2.666667,-2.666667 0,-1.470667 -1.196,-2.6666667 -2.666667,-2.6666667 -1.470667,0 -2.6666667,1.1959997 -2.6666667,2.6666667 z M 16,12 c 0,2.209333 -1.790667,4 -4,4 -2.2093333,0 -4,-1.790667 -4,-4 0,-2.2093333 1.7906667,-4 4,-4 2.209333,0 4,1.7906667 4,4 z" />
</svg>
