<?xml version="1.0" encoding="UTF-8" standalone="no"?>
<svg
   xmlns:dc="http://purl.org/dc/elements/1.1/"
   xmlns:cc="http://creativecommons.org/ns#"
   xmlns:rdf="http://www.w3.org/1999/02/22-rdf-syntax-ns#"
   xmlns:svg="http://www.w3.org/2000/svg"
   xmlns="http://www.w3.org/2000/svg"
   xmlns:sodipodi="http://sodipodi.sourceforge.net/DTD/sodipodi-0.dtd"
   xmlns:inkscape="http://www.inkscape.org/namespaces/inkscape"
   inkscape:version="1.0 (4035a4fb49, 2020-05-01)"
   sodipodi:docname="calendar-icon.svg"
   id="svg4"
   version="1.1"
   viewBox="0 0 24 20"
   height="20"
   width="24">
  <metadata
     id="metadata10">
    <rdf:RDF>
      <cc:Work
         rdf:about="">
        <dc:format>image/svg+xml</dc:format>
        <dc:type
           rdf:resource="http://purl.org/dc/dcmitype/StillImage" />
        <dc:title />
      </cc:Work>
    </rdf:RDF>
  </metadata>
  <defs
     id="defs8" />
  <sodipodi:namedview
     inkscape:current-layer="svg4"
     inkscape:window-maximized="1"
     inkscape:window-y="-8"
     inkscape:window-x="-8"
     inkscape:cy="12"
     inkscape:cx="12"
     inkscape:zoom="16.294431"
     showgrid="false"
     id="namedview6"
     inkscape:window-height="705"
     inkscape:window-width="1366"
     inkscape:pageshadow="2"
     inkscape:pageopacity="0"
     guidetolerance="10"
     gridtolerance="10"
     objecttolerance="10"
     borderopacity="1"
     bordercolor="#666666"
     pagecolor="#ffffff"
     inkscape:document-rotation="0" />
  <path
     style="stroke-width:0.666667;fill:#767678;fill-opacity:1"
     id="path2"
     d="m 17.333333,17.333333 h -2.666666 v -2.666666 h 2.666666 z m -4,-6.666666 h -2.666666 v 2.666666 h 2.666666 z m 4,0 h -2.666666 v 2.666666 h 2.666666 z m -7.9999997,4 H 6.6666667 v 2.666666 h 2.6666666 z m 3.9999997,0 h -2.666666 v 2.666666 h 2.666666 z m -3.9999997,-4 H 6.6666667 v 2.666666 H 9.3333333 Z M 20,5.3333333 V 20 H 4 V 5.3333333 H 6 V 6 c 0,0.7353333 0.598,1.3333333 1.3333333,1.3333333 0.7353334,0 1.3333334,-0.598 1.3333334,-1.3333333 V 5.3333333 H 15.333333 V 6 c 0,0.7353333 0.598,1.3333333 1.333334,1.3333333 C 17.402,7.3333333 18,6.7353333 18,6 V 5.3333333 Z m -1.333333,4 H 5.3333333 V 18.666667 H 18.666667 Z M 17.333333,4.6666667 C 17.333333,4.2986667 17.035333,4 16.666667,4 16.298,4 16,4.2986667 16,4.6666667 V 6 c 0,0.368 0.298,0.6666667 0.666667,0.6666667 C 17.035333,6.6666667 17.333333,6.368 17.333333,6 Z M 8,6 C 8,6.368 7.702,6.6666667 7.3333333,6.6666667 6.9646667,6.6666667 6.6666667,6.368 6.6666667,6 V 4.6666667 C 6.6666667,4.2986667 6.9646667,4 7.3333333,4 7.702,4 8,4.2986667 8,4.6666667 Z" />
</svg>
